# This file uses millimeters as units for non-parametric coordinates.

mtllib squareInset.mtl
g default
v -1.871729 0.164594 1.871729
v -1.871729 0.164594 -1.871729
v -1.615422 0.164594 -1.615422
v -1.615422 0.164594 1.615422
v 1.615422 0.164594 1.615422
v 1.871729 0.164594 1.871729
v 1.615422 0.164594 -1.615422
v 1.871729 0.164594 -1.871729
v 2.400000 0.297145 2.400000
v 2.400000 0.297145 -2.400000
v -2.400000 0.297145 -2.400000
v -1.615422 0.297145 -1.615422
v 1.615422 0.297145 -1.615422
v 1.615422 0.297145 1.615422
v -2.400000 0.297145 2.400000
v -1.615422 0.297145 1.615422
v -1.871729 -0.152754 1.871729
v 1.871729 -0.152754 1.871729
v 1.871729 -0.152754 -1.871729
v -2.400000 -0.290913 2.400000
v 2.400000 -0.290913 2.400000
v 2.400000 -0.290913 -2.400000
v -1.871729 -0.152754 -1.871729
v -2.400000 -0.290913 -2.400000
vt 0.375000 0.250000
vt 0.375000 0.500000
vt 0.392117 0.482883
vt 0.392117 0.267117
vt 0.607883 0.267117
vt 0.625000 0.250000
vt 0.607883 0.482883
vt 0.625000 0.500000
vt 0.584137 0.459137
vt 0.625000 0.500000
vt 0.375000 0.500000
vt 0.415863 0.459137
vt 0.375000 0.250000
vt 0.625000 0.250000
vt 0.584137 0.290863
vt 0.415863 0.290863
vt 0.625000 0.037547
vt 0.375000 0.037547
vt 0.375000 0.201002
vt 0.625000 0.201002
vt 0.875000 0.037547
vt 0.875000 0.201002
vt 0.375000 0.000000
vt 0.625000 0.000000
vt 0.875000 0.250000
vt 0.875000 0.000000
vt 0.375000 0.000000
vt 0.625000 0.000000
vt 0.875000 0.000000
vt 0.875000 0.250000
vt 0.375000 0.750000
vt 0.375000 1.000000
vt 0.625000 1.000000
vt 0.625000 0.750000
vt 0.375000 0.750000
vt 0.625000 0.750000
vt 0.625000 1.000000
vt 0.375000 1.000000
vt 0.125000 0.037547
vt 0.125000 0.201002
vt 0.625000 0.548998
vt 0.375000 0.548998
vt 0.375000 0.712453
vt 0.625000 0.712453
vt 0.125000 0.000000
vt 0.125000 0.250000
vt 0.125000 0.000000
vt 0.125000 0.250000
vn 0.000000 -1.000000 0.000000
vn 0.000000 -1.000000 0.000000
vn 0.000000 -1.000000 0.000000
vn 0.000000 -1.000000 0.000000
vn 0.000000 -1.000000 0.000000
vn 0.000000 -1.000000 0.000000
vn 0.000000 -1.000000 0.000000
vn 0.000000 -1.000000 0.000000
vn 0.000000 -1.000000 0.000000
vn 0.000000 -1.000000 0.000000
vn 0.000000 -1.000000 0.000000
vn 0.000000 -1.000000 0.000000
vn 0.000000 1.000000 0.000000
vn 0.000000 1.000000 0.000000
vn 0.000000 1.000000 0.000000
vn 0.000000 1.000000 0.000000
vn 0.000000 1.000000 0.000000
vn 0.000000 1.000000 0.000000
vn 0.000000 1.000000 0.000000
vn 0.000000 1.000000 0.000000
vn 0.000000 0.000000 -1.000000
vn 0.000000 0.000000 -1.000000
vn 0.000000 0.000000 -1.000000
vn 0.000000 0.000000 -1.000000
vn -1.000000 0.000000 0.000000
vn -1.000000 0.000000 0.000000
vn -1.000000 0.000000 0.000000
vn -1.000000 0.000000 0.000000
vn 0.000000 0.000000 -1.000000
vn 0.000000 0.000000 -1.000000
vn 0.000000 0.000000 -1.000000
vn 0.000000 0.000000 -1.000000
vn -1.000000 0.000000 0.000000
vn -1.000000 0.000000 0.000000
vn -1.000000 0.000000 0.000000
vn -1.000000 0.000000 0.000000
vn 0.000000 0.000000 1.000000
vn 0.000000 0.000000 1.000000
vn 0.000000 0.000000 1.000000
vn 0.000000 0.000000 1.000000
vn 1.000000 0.000000 0.000000
vn 1.000000 0.000000 0.000000
vn 1.000000 0.000000 0.000000
vn 1.000000 0.000000 0.000000
vn 0.000000 1.000000 0.000000
vn 0.000000 1.000000 0.000000
vn 0.000000 1.000000 0.000000
vn 0.000000 1.000000 0.000000
vn 0.000000 -1.000000 0.000000
vn 0.000000 -1.000000 0.000000
vn 0.000000 -1.000000 0.000000
vn 0.000000 -1.000000 0.000000
vn 1.000000 0.000000 0.000000
vn 1.000000 0.000000 0.000000
vn 1.000000 0.000000 0.000000
vn 1.000000 0.000000 0.000000
vn 0.000000 0.000000 1.000000
vn 0.000000 0.000000 1.000000
vn 0.000000 0.000000 1.000000
vn 0.000000 0.000000 1.000000
vn 1.000000 0.000000 0.000000
vn 1.000000 0.000000 0.000000
vn 1.000000 0.000000 0.000000
vn 1.000000 0.000000 0.000000
vn 0.000000 0.000000 1.000000
vn 0.000000 0.000000 1.000000
vn 0.000000 0.000000 1.000000
vn 0.000000 0.000000 1.000000
vn -1.000000 0.000000 0.000000
vn -1.000000 0.000000 0.000000
vn -1.000000 0.000000 0.000000
vn -1.000000 0.000000 0.000000
vn 0.000000 0.000000 -1.000000
vn 0.000000 0.000000 -1.000000
vn 0.000000 0.000000 -1.000000
vn 0.000000 0.000000 -1.000000
vn 0.000000 1.000000 0.000000
vn 0.000000 1.000000 0.000000
vn 0.000000 1.000000 0.000000
vn 0.000000 1.000000 0.000000
vn 0.000000 1.000000 0.000000
vn 0.000000 1.000000 0.000000
vn 0.000000 1.000000 0.000000
vn 0.000000 1.000000 0.000000
s off
g squareInset_braceletSquareInsetinsetOptions1
usemtl initialShadingGroup
f 1/1/1 2/2/2 3/3/3 4/4/4 5/5/5 6/6/6
f 5/5/7 7/7/8 3/3/9 2/2/10 8/8/11 6/6/12
f 13/9/13 10/10/14 11/11/15 12/12/16
f 15/13/17 9/14/18 14/15/19 16/16/20
f 5/17/21 4/18/22 16/19/23 14/20/24
f 7/21/25 5/17/26 14/20/27 13/22/28
f 17/23/29 1/1/30 6/6/31 18/24/32
f 18/24/33 6/6/34 8/25/35 19/26/36
f 20/27/37 21/28/38 9/14/39 15/13/40
f 21/28/41 22/29/42 10/30/43 9/14/44
f 23/31/45 17/32/46 18/33/47 19/34/48
f 24/35/49 22/36/50 21/37/51 20/38/52
f 4/18/53 3/39/54 12/40/55 16/19/56
f 13/41/57 12/42/58 3/43/59 7/44/60
f 23/45/61 2/46/62 1/1/63 17/23/64
f 2/2/65 23/31/66 19/34/67 8/8/68
f 24/47/69 20/27/70 15/13/71 11/48/72
f 11/11/73 10/10/74 22/36/75 24/35/76
f 15/13/77 16/16/78 12/12/79 11/11/80
f 9/14/81 10/10/82 13/9/83 14/15/84
