# This file uses centimeters as units for non-parametric coordinates.

mtllib triangleInset.mtl
g default
v -3.300158 0.352383 3.008222
v 0.000000 0.352383 -2.676131
v 2.642854 0.352383 2.442193
v 0.000000 0.352383 -2.109987
v -2.642854 0.352383 2.442193
v -3.599331 0.528440 3.099664
v -2.642854 0.528440 2.442193
v 0.000000 0.528440 -2.109987
v 2.642854 0.528440 2.442193
v 0.000000 0.528440 -3.100000
v -3.599331 0.000000 3.099664
v 0.000000 0.000000 -3.100000
v 3.599331 0.000000 3.099664
v -3.300158 0.090727 3.008222
v 3.300158 0.090727 3.008222
v 0.000000 0.090727 -2.676131
v 3.599331 0.528440 3.099664
v 3.300158 0.352383 3.008222
vt 0.000054 0.000089
vt 0.666667 0.500000
vt 0.066433 0.900342
vt 0.600274 0.500000
vt 0.066433 0.099658
vt 0.000054 0.000089
vt 0.070748 0.132934
vt 0.560217 0.500000
vt 0.070748 0.867066
vt 0.666667 0.500000
vt 0.000054 0.000089
vt 0.666667 0.500000
vt 0.000054 0.999911
vt 0.000054 0.000089
vt 0.000054 0.999911
vt 0.666667 0.500000
vt 0.000054 0.999911
vt 0.000054 0.999911
vt 0.666667 0.500000
vt 0.666667 0.500000
vt 0.000054 0.999911
vt 0.000054 0.999911
vt 0.000054 0.000089
vt 0.000054 0.000089
vn 0.000000 -1.000000 0.000000
vn 0.000000 -1.000000 0.000000
vn 0.000000 -1.000000 0.000000
vn 0.000000 -1.000000 0.000000
vn 0.000000 -1.000000 0.000000
vn 0.000000 1.000000 0.000000
vn 0.000000 1.000000 0.000000
vn 0.000000 1.000000 0.000000
vn 0.000000 1.000000 0.000000
vn 0.000000 1.000000 0.000000
vn 0.000000 -1.000000 0.000000
vn 0.000000 -1.000000 0.000000
vn 0.000000 -1.000000 0.000000
vn 0.000000 1.000000 0.000000
vn 0.000000 1.000000 0.000000
vn 0.000000 1.000000 0.000000
vn -0.864818 0.000000 0.502086
vn -0.864818 0.000000 0.502086
vn -0.864818 0.000000 0.502086
vn -0.864818 0.000000 0.502086
vn 0.864818 0.000000 -0.502086
vn 0.864818 0.000000 -0.502086
vn 0.864818 0.000000 -0.502086
vn 0.864818 0.000000 -0.502086
vn -0.864818 0.000000 0.502086
vn -0.864818 0.000000 0.502086
vn -0.864818 0.000000 0.502086
vn -0.864818 0.000000 0.502086
vn 0.000000 0.000000 -1.000000
vn 0.000000 0.000000 -1.000000
vn 0.000000 0.000000 -1.000000
vn 0.000000 0.000000 -1.000000
vn 0.000000 -1.000000 0.000000
vn 0.000000 -1.000000 0.000000
vn 0.000000 -1.000000 0.000000
vn 0.000000 -1.000000 0.000000
vn 0.000000 -1.000000 0.000000
vn 0.000000 0.000000 -1.000000
vn 0.000000 0.000000 -1.000000
vn 0.000000 0.000000 -1.000000
vn 0.000000 0.000000 -1.000000
vn 0.000000 1.000000 0.000000
vn 0.000000 1.000000 0.000000
vn 0.000000 1.000000 0.000000
vn 0.000000 1.000000 0.000000
vn 0.000000 1.000000 0.000000
vn 0.000000 0.000000 1.000000
vn 0.000000 0.000000 1.000000
vn 0.000000 0.000000 1.000000
vn 0.000000 0.000000 1.000000
vn 0.864818 0.000000 0.502086
vn 0.864818 0.000000 0.502086
vn 0.864818 0.000000 0.502086
vn 0.864818 0.000000 0.502086
vn 0.864818 0.000000 0.502086
vn 0.864818 0.000000 0.502086
vn 0.864818 0.000000 0.502086
vn 0.864818 0.000000 0.502086
vn -0.864818 0.000000 -0.502086
vn -0.864818 0.000000 -0.502086
vn -0.864818 0.000000 -0.502086
vn -0.864818 0.000000 -0.502086
s 1
g triangleInsetinsetOptions
usemtl initialShadingGroup
f 3/3/1 4/4/2 2/2/3
f 1/1/4 2/2/3 5/5/5
f 2/2/3 4/4/2 5/5/5
s 2
f 9/9/6 10/10/7 8/8/8
f 6/6/9 7/7/10 10/10/7
f 7/7/10 8/8/8 10/10/7
s off
f 11/11/11 12/12/12 13/13/13
f 14/14/14 15/15/15 16/16/16
s 3
f 3/17/17 9/18/18 4/20/19
f 4/20/19 9/18/18 8/19/20
s 4
f 13/13/21 12/12/22 17/21/23
f 17/21/23 12/12/22 10/10/24
s 5
f 15/15/25 18/22/26 16/16/27
f 16/16/27 18/22/26 2/2/28
s 6
f 5/23/29 7/24/30 3/17/31
f 3/17/31 7/24/30 9/18/32
s 7
f 2/2/33 18/22/34 3/3/35
f 18/22/34 1/1/36 3/3/35
f 1/1/36 5/5/37 3/3/35
s 8
f 14/14/38 1/1/39 15/15/40
f 15/15/40 1/1/39 18/22/41
s 9
f 10/10/42 9/9/43 17/21/44
f 6/6/45 17/21/44 7/7/46
f 9/9/43 7/7/46 17/21/44
s 10
f 11/11/47 13/13/48 6/6/49
f 6/6/49 13/13/48 17/21/50
s 11
f 4/20/51 8/19/52 5/23/53
f 5/23/53 8/19/52 7/24/54
s 12
f 16/16/55 2/2/56 14/14/57
f 14/14/57 2/2/56 1/1/58
s 13
f 12/12/59 11/11/60 10/10/61
f 10/10/61 11/11/60 6/6/62
