# This file uses millimeters as units for non-parametric coordinates.

mtllib wrapBracelet_knob.mtl
g default
v 10.290278 0.033646 -0.180382
v 10.358171 0.033646 -0.248275
v 10.538553 0.033646 0.000000
v 10.443721 0.033646 -0.291865
v 10.246689 0.033646 -0.094833
v 10.538553 0.033646 -0.306885
v 10.231668 0.033646 0.000000
v 10.633386 0.033646 -0.291865
v 10.246689 0.033646 0.094833
v 10.718936 0.033646 -0.248275
v 10.290278 0.033646 0.180382
v 10.472216 0.105995 -0.296378
v 12.500000 0.107134 -1.500000
v 10.464940 0.106033 -0.295226
v 10.786828 0.033646 -0.180382
v 10.358171 0.033646 0.248275
v 10.830418 0.033646 -0.094833
v 10.443721 0.033646 0.291865
v 10.714070 0.105992 -0.250754
v 10.634433 0.105991 -0.291331
v 10.845438 0.033646 0.000000
v 10.538553 0.033646 0.306885
v 10.633386 0.033646 0.291865
v 10.830418 0.033646 0.094833
v 10.718935 0.033646 0.248275
v 10.786828 0.033646 0.180382
v 10.358171 0.478367 -0.248275
v 10.290278 0.478367 -0.180382
v 10.538553 0.478367 0.000000
v 10.443721 0.478367 -0.291865
v 10.246689 0.478367 -0.094833
v 10.538553 0.478367 -0.306885
v 10.231668 0.478367 0.000000
v 10.633386 0.478367 -0.291865
v 10.246689 0.478367 0.094833
v 10.718936 0.478367 -0.248275
v 10.290278 0.478367 0.180382
v 10.786828 0.478367 -0.180382
v 10.358171 0.478367 0.248275
v 10.830418 0.478367 -0.094833
v 10.443721 0.478367 0.291865
v 10.845438 0.478367 0.000000
v 10.538553 0.478367 0.306885
v 10.633386 0.478367 0.291865
v 10.830418 0.478367 0.094833
v 10.718935 0.478367 0.248275
v 10.786828 0.478367 0.180382
v 10.464940 0.106033 0.295225
v 12.500000 0.107134 1.500000
v 10.472216 0.105995 0.296378
v 10.634433 0.105991 0.291331
v 10.714070 0.105992 0.250754
v 6.460786 0.107134 1.500000
v 6.460786 0.107134 -1.500000
v 6.460786 -0.007773 -1.500000
v 6.460786 -0.007773 1.500000
v 12.500000 -0.007116 -1.500000
v 10.360187 0.105991 -0.249302
v 10.294943 0.105993 -0.185047
v 10.358171 0.105991 -0.248275
v 10.251355 0.105994 -0.103990
v 10.290278 0.105993 -0.180382
v 10.233883 0.105996 -0.013984
v 10.246689 0.105995 -0.094833
v 12.500000 -0.007116 1.500000
v 10.233883 0.105996 0.013984
v 10.251355 0.105994 0.103990
v 10.246689 0.105995 0.094833
v 10.294943 0.105993 0.185047
v 10.290278 0.105993 0.180382
v 10.360188 0.105991 0.249302
v 10.358171 0.105991 0.248275
v 10.548126 0.105990 -0.305369
v 10.538553 0.105994 -0.306885
v 10.633386 0.105991 -0.291865
v 10.779255 0.105995 -0.187955
v 10.718936 0.105993 -0.248275
v 10.823178 0.105998 -0.109041
v 10.786828 0.105997 -0.180382
v 10.548126 0.105990 0.305368
v 10.538553 0.105994 0.306885
v 10.841933 0.106002 0.022125
v 10.835505 0.106007 -0.062713
v 10.845438 0.106007 0.000000
v 10.633386 0.105991 0.291865
v 10.823178 0.105998 0.109041
v 10.830418 0.106001 0.094833
v 10.779255 0.105995 0.187955
v 10.786828 0.105997 0.180382
v 10.718935 0.105993 0.248275
v 10.231668 0.105997 0.000000
v 10.443721 0.106030 -0.291865
v 10.443721 0.106030 0.291865
v 10.830418 0.106003 -0.094833
vt 0.373591 0.064409
vt 0.408159 0.029841
vt 0.500000 0.150000
vt 0.451716 0.007647
vt 0.351397 0.107966
vt 0.500000 -0.000000
vt 0.343750 0.156250
vt 0.548284 0.007647
vt 0.351397 0.204534
vt 0.591842 0.029841
vt 0.373591 0.248091
vt 0.626409 0.064408
vt 0.408159 0.282659
vt 0.648603 0.107966
vt 0.451716 0.304853
vt 0.656250 0.156250
vt 0.500000 0.312500
vt 0.548284 0.304853
vt 0.648603 0.204534
vt 0.591841 0.282659
vt 0.626409 0.248091
vt 0.408159 0.970159
vt 0.373591 0.935591
vt 0.500000 0.837500
vt 0.451716 0.992353
vt 0.351397 0.892034
vt 0.500000 1.000000
vt 0.343750 0.843750
vt 0.548284 0.992353
vt 0.351397 0.795466
vt 0.591841 0.970159
vt 0.373591 0.751909
vt 0.626409 0.935591
vt 0.408159 0.717341
vt 0.648603 0.892034
vt 0.451716 0.695147
vt 0.656250 0.843750
vt 0.500000 0.687500
vt 0.548284 0.695147
vt 0.648603 0.795466
vt 0.591842 0.717341
vt 0.626409 0.751908
vt 0.000000 0.000000
vt 1.000000 0.000000
vt 1.000000 1.000000
vt 0.000000 1.000000
vt 0.562004 0.500000
vt 0.625000 0.500000
vt 0.625000 0.750000
vt 0.562004 0.750000
vt 0.562004 0.250000
vt 0.597532 0.373835
vt 0.597505 0.375000
vt 0.597532 0.376165
vt 0.597697 0.382900
vt 0.597754 0.383663
vt 0.598256 0.390027
vt 0.598315 0.390415
vt 0.599132 0.395683
vt 0.599157 0.395768
vt 0.600165 0.399315
vt 0.600420 0.399595
vt 0.600577 0.399690
vt 0.601439 0.400565
vt 0.601570 0.400439
vt 0.602675 0.399314
vt 0.602689 0.399269
vt 0.603719 0.395889
vt 0.603781 0.395683
vt 0.604560 0.390658
vt 0.604655 0.390027
vt 0.605125 0.384084
vt 0.605211 0.382900
vt 0.605271 0.380223
vt 0.625000 0.250000
vt 0.562004 1.000000
vt 0.625000 1.000000
vt 0.562004 0.000000
vt 0.625000 0.000000
vt 0.605399 0.374999
vt 0.605362 0.373156
vt 0.605214 0.367099
vt 0.605125 0.365916
vt 0.604655 0.359973
vt 0.604560 0.359342
vt 0.603781 0.354317
vt 0.603719 0.354111
vt 0.602689 0.350731
vt 0.602675 0.350686
vt 0.601570 0.349561
vt 0.601439 0.349435
vt 0.600577 0.350310
vt 0.600420 0.350405
vt 0.600165 0.350685
vt 0.599157 0.354232
vt 0.599132 0.354317
vt 0.598315 0.359585
vt 0.598256 0.359973
vt 0.597754 0.366337
vt 0.597697 0.367100
vt 0.875000 0.000000
vt 0.875000 0.250000
vt 0.450000 0.312500
vt 0.462500 0.312500
vt 0.462500 0.359873
vt 0.461641 0.359873
vt 0.450000 0.359872
vt 0.437500 0.312500
vt 0.449705 0.359872
vt 0.437500 0.359897
vt 0.475000 0.312500
vt 0.475000 0.359875
vt 0.473662 0.359874
vt 0.487500 0.312500
vt 0.487500 0.359875
vt 0.485657 0.359875
vt 0.412500 0.312500
vt 0.425000 0.312500
vt 0.425000 0.359874
vt 0.423738 0.359871
vt 0.412500 0.359872
vt 0.500000 0.312500
vt 0.500000 0.359875
vt 0.489343 0.359875
vt 0.462500 0.688440
vt 0.450000 0.688440
vt 0.437500 0.688440
vt 0.475000 0.688440
vt 0.512500 0.312500
vt 0.512500 0.359873
vt 0.501338 0.359874
vt 0.487500 0.688440
vt 0.425000 0.688440
vt 0.412500 0.688440
vt 0.500000 0.688440
vt 0.525000 0.312500
vt 0.525000 0.359872
vt 0.513359 0.359873
vt 0.387500 0.312500
vt 0.400000 0.312500
vt 0.400000 0.359873
vt 0.388894 0.359874
vt 0.387500 0.359876
vt 0.512500 0.688440
vt 0.537500 0.312500
vt 0.537500 0.359897
vt 0.525294 0.359872
vt 0.375000 0.312500
vt 0.377076 0.359876
vt 0.375000 0.359880
vt 0.525000 0.688440
vt 0.400000 0.688440
vt 0.387500 0.688440
vt 0.612500 0.312500
vt 0.625000 0.312500
vt 0.625000 0.359880
vt 0.620766 0.359882
vt 0.612500 0.359882
vt 0.550000 0.312500
vt 0.562500 0.312500
vt 0.562500 0.359872
vt 0.551262 0.359871
vt 0.550000 0.359874
vt 0.600000 0.312500
vt 0.609583 0.359879
vt 0.600000 0.359879
vt 0.537500 0.688440
vt 0.375000 0.688440
vt 0.587500 0.312500
vt 0.597924 0.359876
vt 0.587500 0.359876
vt 0.575000 0.312500
vt 0.586105 0.359874
vt 0.575000 0.359873
vt 0.625000 0.688440
vt 0.612500 0.688440
vt 0.562500 0.688440
vt 0.550000 0.688440
vt 0.600000 0.688440
vt 0.587500 0.688440
vt 0.575000 0.688440
vt 0.434703 0.359899
vt 0.433744 0.359875
vt 0.412347 0.359871
vt 0.400711 0.359873
vt 0.541256 0.359875
vt 0.540297 0.359899
vt 0.574289 0.359872
vt 0.562653 0.359871
vn 0.000000 -1.000000 0.000000
vn 0.000000 -1.000000 -0.000000
vn 0.000000 -1.000000 -0.000000
vn 0.000000 -1.000000 -0.000000
vn 0.000000 -1.000000 0.000000
vn 0.000000 -1.000000 0.000000
vn 0.000000 -1.000000 0.000000
vn 0.000000 -1.000000 -0.000000
vn 0.000000 -1.000000 0.000000
vn 0.000000 -1.000000 -0.000000
vn 0.000000 -1.000000 0.000000
vn 0.000000 -1.000000 0.000000
vn 0.000000 -1.000000 0.000000
vn 0.000000 -1.000000 0.000000
vn 0.000000 -1.000000 0.000000
vn 0.000000 -1.000000 0.000000
vn 0.000000 -1.000000 0.000000
vn 0.000000 -1.000000 0.000000
vn 0.000000 -1.000000 0.000000
vn 0.000000 -1.000000 0.000000
vn 0.000000 -1.000000 0.000000
vn 0.000000 1.000000 0.000000
vn 0.000000 1.000000 0.000000
vn 0.000000 1.000000 0.000000
vn 0.000000 1.000000 0.000000
vn 0.000000 1.000000 0.000000
vn 0.000000 1.000000 0.000000
vn 0.000000 1.000000 0.000000
vn 0.000000 1.000000 0.000000
vn 0.000000 1.000000 -0.000000
vn 0.000000 1.000000 0.000000
vn 0.000000 1.000000 0.000000
vn 0.000000 1.000000 0.000000
vn 0.000000 1.000000 0.000000
vn 0.000000 1.000000 0.000000
vn 0.000000 1.000000 0.000000
vn 0.000000 1.000000 0.000000
vn 0.000000 1.000000 0.000000
vn 0.000000 1.000000 0.000000
vn 0.000000 1.000000 -0.000000
vn 0.000000 1.000000 0.000000
vn 0.000000 1.000000 0.000000
vn -1.000000 0.000000 0.000000
vn -1.000000 0.000000 0.000000
vn -1.000000 0.000000 0.000000
vn -1.000000 0.000000 0.000000
vn 0.000000 0.000000 -1.000000
vn 0.000000 0.000000 -1.000000
vn 0.000000 0.000000 -1.000000
vn 0.000000 0.000000 -1.000000
vn 0.000004 1.000000 0.000291
vn 0.000004 1.000000 0.000291
vn 0.000002 1.000000 0.000179
vn 0.000001 1.000000 0.000055
vn 0.000004 1.000000 0.000291
vn 0.000004 1.000000 0.000291
vn 0.000004 1.000000 0.000291
vn 0.000004 1.000000 0.000291
vn 0.000004 1.000000 0.000291
vn 0.000004 1.000000 0.000291
vn 0.000004 1.000000 0.000291
vn 0.000004 1.000000 0.000291
vn 0.000004 1.000000 0.000291
vn 0.000004 1.000000 0.000291
vn 0.000004 1.000000 0.000291
vn 0.000004 1.000000 0.000291
vn 0.000004 1.000000 0.000291
vn 0.000004 1.000000 0.000291
vn 0.000004 1.000000 0.000291
vn 0.000004 1.000000 0.000291
vn 0.000004 1.000000 0.000291
vn 0.000004 1.000000 0.000291
vn 0.000004 1.000000 0.000291
vn 0.000004 1.000000 0.000291
vn 0.000004 1.000000 0.000291
vn 0.000003 1.000000 0.000194
vn 0.000000 1.000000 0.000017
vn 0.000109 -1.000000 0.000000
vn 0.000109 -1.000000 0.000000
vn 0.000109 -1.000000 0.000000
vn 0.000109 -1.000000 0.000000
vn 0.000000 0.000000 1.000000
vn 0.000000 0.000000 1.000000
vn 0.000000 0.000000 1.000000
vn 0.000000 0.000000 1.000000
vn -0.000011 1.000000 -0.000776
vn -0.000011 1.000000 -0.000776
vn -0.000011 1.000000 -0.000776
vn -0.000011 1.000000 -0.000776
vn -0.000011 1.000000 -0.000776
vn -0.000011 1.000000 -0.000776
vn -0.000011 1.000000 -0.000776
vn -0.000011 1.000000 -0.000776
vn -0.000011 1.000000 -0.000776
vn -0.000011 1.000000 -0.000776
vn -0.000011 1.000000 -0.000776
vn -0.000011 1.000000 -0.000776
vn -0.000011 1.000000 -0.000776
vn -0.000011 1.000000 -0.000776
vn -0.000011 1.000000 -0.000776
vn -0.000011 1.000000 -0.000776
vn -0.000011 1.000000 -0.000776
vn -0.000011 1.000000 -0.000776
vn -0.000011 1.000000 -0.000776
vn -0.000011 1.000000 -0.000776
vn -0.000011 1.000000 -0.000776
vn 1.000000 0.000000 0.000000
vn 1.000000 0.000000 0.000000
vn 1.000000 0.000000 0.000000
vn 1.000000 0.000000 0.000000
vn -0.587769 0.000004 -0.809029
vn -0.809020 -0.000000 -0.587781
vn -0.809024 -0.000000 -0.587776
vn -0.707110 0.000009 -0.707104
vn -0.587775 0.000004 -0.809024
vn -0.309022 0.000001 -0.951055
vn -0.453988 0.000000 -0.891008
vn -0.308995 0.000001 -0.951064
vn -0.951057 -0.000004 -0.309016
vn -0.951059 -0.000004 -0.309010
vn -0.891007 -0.000009 -0.453989
vn -1.000000 0.000000 0.000000
vn -1.000000 0.000000 0.000000
vn -0.987688 0.000000 -0.156438
vn 0.309017 -0.000001 -0.951056
vn -0.000015 0.000001 -1.000000
vn -0.000038 0.000001 -1.000000
vn 0.156435 0.000000 -0.987688
vn 0.309007 -0.000001 -0.951060
vn -0.951057 0.000000 0.309016
vn -0.951059 0.000000 0.309010
vn -0.987688 0.000000 0.156438
vn -0.809015 -0.000000 -0.587788
vn -0.809019 -0.000000 -0.587783
vn -0.587788 -0.000001 -0.809015
vn -0.587783 -0.000001 -0.809019
vn -0.707110 -0.000002 -0.707104
vn -0.309015 -0.000000 -0.951057
vn -0.309042 -0.000000 -0.951048
vn -0.453988 0.000000 -0.891008
vn -0.951054 0.000001 -0.309024
vn -0.951056 0.000001 -0.309018
vn -0.891007 0.000001 -0.453989
vn -0.809017 0.000002 0.587785
vn -0.809021 0.000002 0.587779
vn -0.891007 0.000000 0.453989
vn -1.000000 0.000000 0.000000
vn -1.000000 0.000000 0.000000
vn -0.987688 0.000000 -0.156438
vn 0.000025 -0.000000 -1.000000
vn 0.000003 -0.000000 -1.000000
vn 0.309016 0.000000 -0.951057
vn 0.309026 0.000000 -0.951054
vn 0.156434 -0.000000 -0.987688
vn -0.951054 0.000000 0.309024
vn -0.951056 0.000000 0.309018
vn -0.987688 0.000000 0.156438
vn -0.587769 0.000004 0.809029
vn -0.587775 0.000004 0.809025
vn -0.707105 0.000003 0.707109
vn 0.809021 -0.000004 -0.587779
vn 0.587788 -0.000002 -0.809015
vn 0.587796 -0.000002 -0.809009
vn 0.707110 -0.000001 -0.707104
vn 0.809027 -0.000004 -0.587771
vn -0.809012 0.000000 0.587792
vn -0.809016 0.000000 0.587787
vn -0.891007 0.000000 0.453989
vn -0.309023 0.000003 0.951055
vn -0.308996 0.000003 0.951063
vn -0.453992 0.000005 0.891006
vn 0.951059 0.000005 -0.309010
vn 0.891007 -0.000006 -0.453989
vn 0.951065 0.000005 -0.308990
vn -0.587782 -0.000000 0.809019
vn -0.587788 -0.000000 0.809015
vn -0.707105 0.000000 0.707109
vn 0.587776 0.000000 -0.809023
vn 0.587785 0.000000 -0.809017
vn 0.809018 0.000001 -0.587783
vn 0.809013 0.000001 -0.587792
vn 0.707110 0.000000 -0.707104
vn 1.000000 0.000009 -0.000004
vn 0.987688 0.000017 -0.156438
vn 1.000000 0.000009 -0.000016
vn -0.000015 0.000001 1.000000
vn 0.309019 0.000003 0.951056
vn 0.309008 0.000003 0.951059
vn 0.156435 0.000000 0.987688
vn -0.000038 0.000001 1.000000
vn 0.951058 -0.000004 0.309014
vn 0.987688 0.000000 0.156438
vn 0.951061 -0.000004 0.309004
vn -0.309043 -0.000001 0.951048
vn -0.309016 -0.000001 0.951057
vn -0.453992 -0.000001 0.891006
vn 0.951056 -0.000000 -0.309020
vn 0.951049 -0.000000 -0.309039
vn 0.891007 0.000002 -0.453989
vn 0.809019 -0.000004 0.587783
vn 0.891007 -0.000009 0.453989
vn 0.809025 -0.000004 0.587775
vn 0.587788 0.000003 0.809015
vn 0.707105 0.000000 0.707109
vn 0.587796 0.000003 0.809009
vn 1.000000 -0.000001 0.000001
vn 1.000000 -0.000001 0.000012
vn 0.987688 -0.000003 -0.156438
vn 0.309028 -0.000000 0.951053
vn 0.309018 -0.000000 0.951056
vn 0.000003 -0.000000 1.000000
vn 0.000026 -0.000000 1.000000
vn 0.156434 0.000000 0.987688
vn 0.951056 0.000001 0.309019
vn 0.951053 0.000001 0.309029
vn 0.987688 0.000000 0.156438
vn 0.809016 0.000001 0.587787
vn 0.809010 0.000001 0.587795
vn 0.891007 0.000001 0.453989
vn 0.587785 -0.000000 0.809018
vn 0.587776 -0.000000 0.809023
vn 0.707105 0.000000 0.707109
vn -0.156435 0.000001 -0.987688
vn -0.156435 0.000001 -0.987688
vn -0.156435 -0.000000 -0.987688
vn -0.156435 -0.000000 -0.987688
vn 0.453988 -0.000003 -0.891008
vn 0.453988 -0.000003 -0.891008
vn 0.453988 0.000001 -0.891008
vn 0.453988 0.000001 -0.891008
vn -0.156434 0.000001 0.987688
vn -0.156434 0.000001 0.987688
vn 0.453992 0.000006 0.891006
vn 0.453992 0.000006 0.891006
vn -0.156434 -0.000000 0.987688
vn -0.156434 -0.000000 0.987688
vn 0.453992 -0.000000 0.891006
vn 0.453992 -0.000000 0.891006
s 1
g polySurface1 orig2_knob1 shortWrap
usemtl initialShadingGroup
f 1/1/1 2/2/2 3/3/3
f 2/2/2 4/4/4 3/3/3
f 5/5/5 1/1/1 3/3/3
f 4/4/4 6/6/6 3/3/3
f 7/7/7 5/5/5 3/3/3
f 6/6/6 8/8/8 3/3/3
f 9/9/9 7/7/7 3/3/3
f 8/8/8 10/10/10 3/3/3
f 11/11/11 9/9/9 3/3/3
f 10/10/10 15/12/12 3/3/3
f 16/13/13 11/11/11 3/3/3
f 15/12/12 17/14/14 3/3/3
f 18/15/15 16/13/13 3/3/3
f 17/14/14 21/16/16 3/3/3
f 22/17/17 18/15/15 3/3/3
f 23/18/18 22/17/17 3/3/3
f 21/16/16 24/19/19 3/3/3
f 25/20/20 23/18/18 3/3/3
f 24/19/19 26/21/21 3/3/3
f 26/21/21 25/20/20 3/3/3
s 2
f 27/22/22 28/23/23 29/24/24
f 30/25/25 27/22/22 29/24/24
f 28/23/23 31/26/26 29/24/24
f 32/27/27 30/25/25 29/24/24
f 31/26/26 33/28/28 29/24/24
f 34/29/29 32/27/27 29/24/24
f 33/28/28 35/30/30 29/24/24
f 36/31/31 34/29/29 29/24/24
f 35/30/30 37/32/32 29/24/24
f 38/33/33 36/31/31 29/24/24
f 37/32/32 39/34/34 29/24/24
f 40/35/35 38/33/33 29/24/24
f 39/34/34 41/36/36 29/24/24
f 42/37/37 40/35/35 29/24/24
f 41/36/36 43/38/38 29/24/24
f 43/38/38 44/39/39 29/24/24
f 45/40/40 42/37/37 29/24/24
f 44/39/39 46/41/41 29/24/24
f 47/42/42 45/40/40 29/24/24
f 46/41/41 47/42/42 29/24/24
s off
f 53/43/43 54/44/44 55/45/45 56/46/46
f 54/47/47 13/48/48 57/49/49 55/50/50
s 3
f 13/48/51 54/47/52 53/51/53 66/52/54 91/53/55 63/54/56 64/55/57 61/56/58 62/57/59 59/58/60 60/59/61 58/60/62 92/61/63 14/62/64 12/63/65 74/64/66 73/65/67 75/66/68 20/67/69 19/68/70 77/69/71 76/70/72 79/71/73 78/72/74 94/73/75 83/74/76 49/75/77
s off
f 56/76/78 55/50/79 57/49/80 65/77/81
f 53/51/82 56/78/83 65/79/84 49/75/85
s 3
f 49/75/77 83/74/76 84/80/86 82/81/87 87/82/88 86/83/89 89/84/90 88/85/91 90/86/92 52/87/93 51/88/94 85/89/95 80/90/96 81/91/97 50/92/98 48/93/99 93/94/100 71/95/101 72/96/102 69/97/103 70/98/104 67/99/105 68/100/106 66/52/54 53/51/53
s off
f 65/79/107 57/101/108 13/102/109 49/75/110
s 4
f 2/103/111 1/104/112 62/105/113 59/106/114 60/107/115
f 4/108/116 2/103/111 60/107/115 58/109/117 92/110/118
f 1/104/112 5/111/119 64/112/120 61/113/121 62/105/113
f 5/111/119 7/114/122 91/115/123 63/116/124 64/112/120
f 8/117/125 6/118/126 74/119/127 73/120/128 75/121/129
f 7/114/122 9/122/130 68/123/131 66/124/132 91/115/123
s 5
f 62/105/133 28/125/134 27/126/135 60/107/136 59/106/137
f 60/107/136 27/126/135 30/127/138 92/110/139 58/109/140
f 64/112/141 31/128/142 28/125/134 62/105/133 61/113/143
s 4
f 9/122/130 11/129/144 70/130/145 67/131/146 68/123/131
s 5
f 91/115/147 33/132/148 31/128/142 64/112/141 63/116/149
f 74/119/150 32/133/151 34/134/152 75/121/153 73/120/154
f 68/123/155 35/135/156 33/132/148 91/115/147 66/124/157
s 4
f 11/129/144 16/136/158 72/137/159 69/138/160 70/130/145
f 15/139/161 10/140/162 77/141/163 76/142/164 79/143/165
s 5
f 70/130/166 37/144/167 35/135/156 68/123/155 67/131/168
s 4
f 16/136/158 18/145/169 93/146/170 71/147/171 72/137/159
f 17/148/172 15/139/161 79/143/165 78/149/173 94/150/174
s 5
f 72/137/175 39/151/176 37/144/167 70/130/166 69/138/177
f 77/141/178 36/152/179 38/153/180 79/143/181 76/142/182
s 4
f 21/154/183 17/155/172 94/156/174 83/157/184 84/158/185
f 22/159/186 23/160/187 85/161/188 80/162/189 81/163/190
f 24/164/191 21/154/183 84/158/185 82/165/192 87/166/193
s 5
f 93/146/194 41/167/195 39/151/176 72/137/175 71/147/196
f 79/143/181 38/153/180 40/168/197 94/150/198 78/149/199
s 4
f 26/169/200 24/164/191 87/166/193 86/170/201 89/171/202
f 25/172/203 26/169/200 89/171/202 88/173/204 90/174/205
s 5
f 94/156/198 40/175/197 42/176/206 84/158/207 83/157/208
f 85/161/209 44/177/210 43/178/211 81/163/212 80/162/213
f 84/158/207 42/176/206 45/179/214 87/166/215 82/165/216
f 87/166/215 45/179/214 47/180/217 89/171/218 86/170/219
f 89/171/218 47/180/217 46/181/220 90/174/221 88/173/222
s 4
f 6/118/126 4/108/116 92/110/118 14/182/223 12/183/224 74/119/127
s 5
f 92/110/139 30/127/138 32/133/151 74/119/150 12/183/225 14/182/226
s 4
f 10/140/162 8/117/125 75/121/129 20/184/227 19/185/228 77/141/163
s 5
f 75/121/153 34/134/152 36/152/179 77/141/178 19/185/229 20/184/230
s 4
f 18/145/169 22/159/186 81/163/190 50/186/231 48/187/232 93/146/170
f 23/160/187 25/172/203 90/174/205 52/188/233 51/189/234 85/161/188
s 5
f 81/163/212 43/178/211 41/167/195 93/146/194 48/187/235 50/186/236
f 90/174/221 46/181/220 44/177/210 85/161/209 51/189/237 52/188/238
